<mxfile host="app.diagrams.net" agent="Mozilla/5.0 (Windows NT 10.0; Win64; x64) AppleWebKit/537.36 (KHTML, like Gecko) Chrome/131.0.0.0 Safari/537.36" version="26.0.2">
  <diagram name="第 1 页" id="litLEBUH-kWfLsoDiGgs">
    <mxGraphModel dx="2269" dy="1200" grid="1" gridSize="10" guides="1" tooltips="1" connect="1" arrows="1" fold="1" page="1" pageScale="1" pageWidth="2339" pageHeight="3300" math="0" shadow="0">
      <root>
        <mxCell id="0" />
        <mxCell id="1" parent="0" />
        <mxCell id="zyhMnMmnVwFTdJTZkk_T-1" value="企业间即时通讯" style="swimlane;childLayout=stackLayout;resizeParent=1;resizeParentMax=0;startSize=20;html=1;" vertex="1" parent="1">
          <mxGeometry x="300" y="220" width="1100" height="850" as="geometry" />
        </mxCell>
        <mxCell id="zyhMnMmnVwFTdJTZkk_T-2" value="企业A" style="swimlane;startSize=20;html=1;" vertex="1" parent="zyhMnMmnVwFTdJTZkk_T-1">
          <mxGeometry y="20" width="340" height="830" as="geometry" />
        </mxCell>
        <mxCell id="zyhMnMmnVwFTdJTZkk_T-9" value="" style="ellipse;html=1;shape=startState;fillColor=#000000;strokeColor=#ff0000;" vertex="1" parent="zyhMnMmnVwFTdJTZkk_T-2">
          <mxGeometry x="155" y="30" width="30" height="30" as="geometry" />
        </mxCell>
        <mxCell id="zyhMnMmnVwFTdJTZkk_T-10" value="" style="edgeStyle=orthogonalEdgeStyle;html=1;verticalAlign=bottom;endArrow=open;endSize=8;strokeColor=#ff0000;rounded=0;entryX=0.5;entryY=0;entryDx=0;entryDy=0;" edge="1" source="zyhMnMmnVwFTdJTZkk_T-9" parent="zyhMnMmnVwFTdJTZkk_T-2" target="zyhMnMmnVwFTdJTZkk_T-11">
          <mxGeometry relative="1" as="geometry">
            <mxPoint x="170" y="120" as="targetPoint" />
          </mxGeometry>
        </mxCell>
        <mxCell id="zyhMnMmnVwFTdJTZkk_T-11" value="发起与B的对话" style="rounded=1;whiteSpace=wrap;html=1;arcSize=40;fontColor=#000000;fillColor=#ffffc0;strokeColor=#ff0000;" vertex="1" parent="zyhMnMmnVwFTdJTZkk_T-2">
          <mxGeometry x="110" y="120" width="120" height="40" as="geometry" />
        </mxCell>
        <mxCell id="zyhMnMmnVwFTdJTZkk_T-3" value="服务器" style="swimlane;startSize=20;html=1;" vertex="1" parent="zyhMnMmnVwFTdJTZkk_T-1">
          <mxGeometry x="340" y="20" width="420" height="830" as="geometry" />
        </mxCell>
        <mxCell id="zyhMnMmnVwFTdJTZkk_T-13" value="建立websocket连接" style="rounded=1;whiteSpace=wrap;html=1;arcSize=40;fontColor=#000000;fillColor=#ffffc0;strokeColor=#ff0000;" vertex="1" parent="zyhMnMmnVwFTdJTZkk_T-3">
          <mxGeometry x="90" y="120" width="120" height="40" as="geometry" />
        </mxCell>
        <mxCell id="zyhMnMmnVwFTdJTZkk_T-14" value="" style="edgeStyle=orthogonalEdgeStyle;html=1;verticalAlign=bottom;endArrow=open;endSize=8;strokeColor=#ff0000;rounded=0;entryX=0.5;entryY=0;entryDx=0;entryDy=0;" edge="1" source="zyhMnMmnVwFTdJTZkk_T-13" parent="zyhMnMmnVwFTdJTZkk_T-3" target="zyhMnMmnVwFTdJTZkk_T-18">
          <mxGeometry relative="1" as="geometry">
            <mxPoint x="150" y="210" as="targetPoint" />
          </mxGeometry>
        </mxCell>
        <mxCell id="zyhMnMmnVwFTdJTZkk_T-18" value="B在线" style="rhombus;whiteSpace=wrap;html=1;fontColor=#000000;fillColor=#ffffc0;strokeColor=#ff0000;" vertex="1" parent="zyhMnMmnVwFTdJTZkk_T-3">
          <mxGeometry x="110" y="210" width="80" height="40" as="geometry" />
        </mxCell>
        <mxCell id="zyhMnMmnVwFTdJTZkk_T-19" value="no" style="edgeStyle=orthogonalEdgeStyle;html=1;align=left;verticalAlign=bottom;endArrow=open;endSize=8;strokeColor=#ff0000;rounded=0;entryX=0.5;entryY=0;entryDx=0;entryDy=0;" edge="1" source="zyhMnMmnVwFTdJTZkk_T-18" parent="zyhMnMmnVwFTdJTZkk_T-3" target="zyhMnMmnVwFTdJTZkk_T-23">
          <mxGeometry x="-0.4325" y="-10" relative="1" as="geometry">
            <mxPoint x="150" y="300" as="targetPoint" />
            <mxPoint as="offset" />
          </mxGeometry>
        </mxCell>
        <mxCell id="zyhMnMmnVwFTdJTZkk_T-23" value="使用redis消息队列暂存消息" style="rounded=1;whiteSpace=wrap;html=1;arcSize=40;fontColor=#000000;fillColor=#ffffc0;strokeColor=#ff0000;" vertex="1" parent="zyhMnMmnVwFTdJTZkk_T-3">
          <mxGeometry x="75" y="300" width="150" height="30" as="geometry" />
        </mxCell>
        <mxCell id="zyhMnMmnVwFTdJTZkk_T-24" value="" style="edgeStyle=orthogonalEdgeStyle;html=1;verticalAlign=bottom;endArrow=open;endSize=8;strokeColor=#ff0000;rounded=0;" edge="1" source="zyhMnMmnVwFTdJTZkk_T-23" parent="zyhMnMmnVwFTdJTZkk_T-3">
          <mxGeometry relative="1" as="geometry">
            <mxPoint x="150" y="380" as="targetPoint" />
          </mxGeometry>
        </mxCell>
        <mxCell id="zyhMnMmnVwFTdJTZkk_T-25" value="B上线" style="rhombus;whiteSpace=wrap;html=1;fontColor=#000000;fillColor=#ffffc0;strokeColor=#ff0000;" vertex="1" parent="zyhMnMmnVwFTdJTZkk_T-3">
          <mxGeometry x="110" y="380" width="80" height="40" as="geometry" />
        </mxCell>
        <mxCell id="zyhMnMmnVwFTdJTZkk_T-26" value="no" style="edgeStyle=orthogonalEdgeStyle;html=1;align=left;verticalAlign=bottom;endArrow=open;endSize=8;strokeColor=#ff0000;rounded=0;entryX=1;entryY=0.5;entryDx=0;entryDy=0;" edge="1" source="zyhMnMmnVwFTdJTZkk_T-25" parent="zyhMnMmnVwFTdJTZkk_T-3" target="zyhMnMmnVwFTdJTZkk_T-23">
          <mxGeometry x="-1" relative="1" as="geometry">
            <mxPoint x="290" y="400" as="targetPoint" />
            <Array as="points">
              <mxPoint x="250" y="400" />
              <mxPoint x="250" y="315" />
            </Array>
          </mxGeometry>
        </mxCell>
        <mxCell id="zyhMnMmnVwFTdJTZkk_T-27" value="yes" style="edgeStyle=orthogonalEdgeStyle;html=1;align=left;verticalAlign=top;endArrow=open;endSize=8;strokeColor=#ff0000;rounded=0;entryX=0.5;entryY=0;entryDx=0;entryDy=0;" edge="1" source="zyhMnMmnVwFTdJTZkk_T-25" parent="zyhMnMmnVwFTdJTZkk_T-3" target="zyhMnMmnVwFTdJTZkk_T-28">
          <mxGeometry x="-1" relative="1" as="geometry">
            <mxPoint x="150" y="480" as="targetPoint" />
          </mxGeometry>
        </mxCell>
        <mxCell id="zyhMnMmnVwFTdJTZkk_T-28" value="清空队列，将信息发送给B" style="rounded=1;whiteSpace=wrap;html=1;arcSize=40;fontColor=#000000;fillColor=#ffffc0;strokeColor=#ff0000;" vertex="1" parent="zyhMnMmnVwFTdJTZkk_T-3">
          <mxGeometry x="90" y="480" width="120" height="40" as="geometry" />
        </mxCell>
        <mxCell id="zyhMnMmnVwFTdJTZkk_T-29" value="" style="edgeStyle=orthogonalEdgeStyle;html=1;verticalAlign=bottom;endArrow=open;endSize=8;strokeColor=#ff0000;rounded=0;entryX=0.196;entryY=0.432;entryDx=0;entryDy=0;entryPerimeter=0;" edge="1" source="zyhMnMmnVwFTdJTZkk_T-28" parent="zyhMnMmnVwFTdJTZkk_T-3" target="zyhMnMmnVwFTdJTZkk_T-42">
          <mxGeometry relative="1" as="geometry">
            <mxPoint x="150" y="560" as="targetPoint" />
          </mxGeometry>
        </mxCell>
        <mxCell id="zyhMnMmnVwFTdJTZkk_T-42" value="" style="shape=line;html=1;strokeWidth=6;strokeColor=#ff0000;" vertex="1" parent="zyhMnMmnVwFTdJTZkk_T-3">
          <mxGeometry x="110" y="560" width="200" height="10" as="geometry" />
        </mxCell>
        <mxCell id="zyhMnMmnVwFTdJTZkk_T-43" value="" style="edgeStyle=orthogonalEdgeStyle;html=1;verticalAlign=bottom;endArrow=open;endSize=8;strokeColor=#ff0000;rounded=0;" edge="1" source="zyhMnMmnVwFTdJTZkk_T-42" parent="zyhMnMmnVwFTdJTZkk_T-3">
          <mxGeometry relative="1" as="geometry">
            <mxPoint x="210" y="640" as="targetPoint" />
          </mxGeometry>
        </mxCell>
        <mxCell id="zyhMnMmnVwFTdJTZkk_T-44" value="A离线，连接关闭" style="rounded=1;whiteSpace=wrap;html=1;arcSize=40;fontColor=#000000;fillColor=#ffffc0;strokeColor=#ff0000;" vertex="1" parent="zyhMnMmnVwFTdJTZkk_T-3">
          <mxGeometry x="150" y="640" width="120" height="40" as="geometry" />
        </mxCell>
        <mxCell id="zyhMnMmnVwFTdJTZkk_T-45" value="" style="edgeStyle=orthogonalEdgeStyle;html=1;verticalAlign=bottom;endArrow=open;endSize=8;strokeColor=#ff0000;rounded=0;entryX=0.5;entryY=0;entryDx=0;entryDy=0;" edge="1" source="zyhMnMmnVwFTdJTZkk_T-44" parent="zyhMnMmnVwFTdJTZkk_T-3" target="zyhMnMmnVwFTdJTZkk_T-46">
          <mxGeometry relative="1" as="geometry">
            <mxPoint x="210" y="740" as="targetPoint" />
          </mxGeometry>
        </mxCell>
        <mxCell id="zyhMnMmnVwFTdJTZkk_T-46" value="" style="ellipse;html=1;shape=endState;fillColor=#000000;strokeColor=#ff0000;" vertex="1" parent="zyhMnMmnVwFTdJTZkk_T-3">
          <mxGeometry x="195" y="750" width="30" height="30" as="geometry" />
        </mxCell>
        <mxCell id="zyhMnMmnVwFTdJTZkk_T-4" value="企业B" style="swimlane;startSize=20;html=1;" vertex="1" parent="zyhMnMmnVwFTdJTZkk_T-1">
          <mxGeometry x="760" y="20" width="340" height="830" as="geometry" />
        </mxCell>
        <mxCell id="zyhMnMmnVwFTdJTZkk_T-21" value="给A回复消息" style="rounded=1;whiteSpace=wrap;html=1;arcSize=40;fontColor=#000000;fillColor=#ffffc0;strokeColor=#ff0000;" vertex="1" parent="zyhMnMmnVwFTdJTZkk_T-4">
          <mxGeometry x="100" y="210" width="120" height="40" as="geometry" />
        </mxCell>
        <mxCell id="zyhMnMmnVwFTdJTZkk_T-12" value="" style="edgeStyle=orthogonalEdgeStyle;html=1;verticalAlign=bottom;endArrow=open;endSize=8;strokeColor=#ff0000;rounded=0;entryX=0;entryY=0.5;entryDx=0;entryDy=0;" edge="1" source="zyhMnMmnVwFTdJTZkk_T-11" parent="zyhMnMmnVwFTdJTZkk_T-1" target="zyhMnMmnVwFTdJTZkk_T-13">
          <mxGeometry relative="1" as="geometry">
            <mxPoint x="430" y="160" as="targetPoint" />
          </mxGeometry>
        </mxCell>
        <mxCell id="zyhMnMmnVwFTdJTZkk_T-20" value="yes" style="edgeStyle=orthogonalEdgeStyle;html=1;align=left;verticalAlign=top;endArrow=open;endSize=8;strokeColor=#ff0000;rounded=0;entryX=0;entryY=0.5;entryDx=0;entryDy=0;" edge="1" source="zyhMnMmnVwFTdJTZkk_T-18" parent="zyhMnMmnVwFTdJTZkk_T-1" target="zyhMnMmnVwFTdJTZkk_T-21">
          <mxGeometry x="-0.9093" y="10" relative="1" as="geometry">
            <mxPoint x="750" y="250" as="targetPoint" />
            <mxPoint as="offset" />
          </mxGeometry>
        </mxCell>
        <mxCell id="zyhMnMmnVwFTdJTZkk_T-22" value="" style="edgeStyle=orthogonalEdgeStyle;html=1;verticalAlign=bottom;endArrow=open;endSize=8;strokeColor=#ff0000;rounded=0;entryX=1;entryY=0.5;entryDx=0;entryDy=0;entryPerimeter=0;" edge="1" source="zyhMnMmnVwFTdJTZkk_T-21" parent="zyhMnMmnVwFTdJTZkk_T-1" target="zyhMnMmnVwFTdJTZkk_T-42">
          <mxGeometry relative="1" as="geometry">
            <mxPoint x="830" y="580" as="targetPoint" />
            <Array as="points">
              <mxPoint x="920" y="585" />
            </Array>
          </mxGeometry>
        </mxCell>
      </root>
    </mxGraphModel>
  </diagram>
</mxfile>
